<svg width="224" height="168" viewBox="0 0 224 168" fill="none" xmlns="http://www.w3.org/2000/svg">
<g id="Vector">
<path d="M108.662 19.9999C121.328 7.31169 138.509 0.186462 156.425 0.191684C174.342 0.196906 191.527 7.33215 204.2 20.0278C216.872 32.7234 223.995 49.9394 224 67.8885C224.005 85.8376 216.837 102.994 204.172 115.682L108.662 19.9999Z" fill="url(#paint0_linear_1_36)"/>
<path d="M191.51 128.367C178.967 140.932 164.077 150.9 147.689 157.7C131.302 164.5 113.738 168 96.0001 168C78.2623 168 60.6983 164.5 44.3108 157.7C27.9232 150.9 13.0331 140.932 0.490662 128.367L96.0001 32.6851L191.51 128.367Z" fill="url(#paint1_linear_1_36)"/>
</g>
<defs>
<linearGradient id="paint0_linear_1_36" x1="196.299" y1="151.769" x2="108.712" y2="-10.9537" gradientUnits="userSpaceOnUse">
<stop offset="0.125" stop-color="#9F49AB"/>
<stop offset="1" stop-color="#FE6F4D"/>
</linearGradient>
<linearGradient id="paint1_linear_1_36" x1="196.299" y1="151.769" x2="108.712" y2="-10.9537" gradientUnits="userSpaceOnUse">
<stop offset="0.125" stop-color="#9F49AB"/>
<stop offset="1" stop-color="#FE6F4D"/>
</linearGradient>
</defs>
</svg>
